# File produced by Open Asset Import Library (http://www.assimp.sf.net)
# (assimp v3.1.13472455)

mtllib tv%20Test.mtl

# vertex positions
v 1.000000 0.500000 -0.065893
v -1.000000 0.500000 -0.065893
v -1.000000 0.500000 0.034981
v 1.000000 0.500000 0.034981
v -0.978471 0.483032 0.034981
v 0.978471 0.483032 0.034981
v -1.000000 -0.500000 0.034981
v -1.000000 -0.500000 -0.065893
v 1.000000 -0.500000 -0.065893
v 1.000000 -0.500000 0.034981
v 0.947822 0.458877 -0.013329
v -0.947822 0.458877 -0.013329
v -0.947822 0.458877 -0.030076
v 0.947822 0.458877 -0.030076
v -0.947822 -0.458877 -0.013329
v 0.947822 -0.458877 -0.013329
v 0.947822 -0.458877 -0.030076
v -0.947822 -0.458877 -0.030076
v -0.978471 -0.483032 0.034981
v 0.978471 -0.483032 0.034981
v -0.951928 0.462113 0.010826
v -0.951928 -0.462113 0.010826
v -0.963146 0.470955 0.028509
v -0.963146 -0.470955 0.028509
v 0.951928 -0.462113 0.010826
v 0.951928 0.462113 0.010826
v 0.963147 -0.470955 0.028509
v 0.963147 0.470955 0.028509

# UV coordinates
vt 0.000153 0.520921
vt 0.714325 0.520922
vt 0.714325 0.543774
vt 0.000153 0.543773
vt 0.706754 0.556026
vt 0.012484 0.556104
vt 0.973257 0.527345
vt 0.973257 0.000153
vt 0.999847 0.000153
vt 0.999847 0.527345
vt 0.929789 0.000153
vt 0.929789 0.714325
vt 0.906937 0.714325
vt 0.906937 0.000153
vt 0.527345 0.673050
vt 0.000153 0.673050
vt 0.000153 0.646460
vt 0.527345 0.646460
vt 0.035414 0.591459
vt 0.696265 0.591182
vt 0.696360 0.602716
vt 0.035509 0.602993
vt 0.859251 0.035414
vt 0.859529 0.696265
vt 0.847995 0.696360
vt 0.847718 0.035509
vt 0.938472 0.025901
vt 0.938540 0.505839
vt 0.930163 0.505894
vt 0.930096 0.025955
vt 0.847411 0.000153
vt 0.847411 0.520615
vt 0.000153 0.520615
vt 0.000153 0.000153
vt 0.964212 0.518404
vt 0.964211 0.009199
vt 0.894685 0.706754
vt 0.894607 0.012484
vt 0.009095 0.637416
vt 0.518299 0.637414
vt 0.946886 0.023722
vt 0.946947 0.507501
vt 0.955434 0.017677
vt 0.955472 0.512098
vt 0.021659 0.611743
vt 0.501598 0.611676
vt 0.503776 0.620090
vt 0.019997 0.620150
vt 0.509822 0.628638
vt 0.015401 0.628675
vt 0.701450 0.567943
vt 0.024098 0.568125
vt 0.697614 0.579623
vt 0.032411 0.579876
vt 0.882768 0.701450
vt 0.882586 0.024098
vt 0.871088 0.697614
vt 0.870835 0.032412
vt 0.021605 0.603367
vt 0.501543 0.603299

# vertex normals
vn 0.000000 1.000000 0.000000
vn 0.000000 0.000000 1.000000
vn -1.000000 0.000000 0.000000
vn 0.000000 -1.000000 0.000000
vn 1.000000 0.000000 0.000000
vn 0.000000 0.000000 1.000000
vn 0.000000 -0.000000 1.000000
vn 0.985857 0.000000 0.167590
vn 0.844405 0.000000 0.535705
vn 0.389076 0.000000 0.921205
vn -0.985857 0.000000 0.167588
vn -0.844407 0.000000 0.535703
vn -0.389077 0.000000 0.921205
vn 0.000000 -0.472348 0.881412
vn 0.000000 -0.894427 0.447213
vn 0.000000 -0.991144 0.132789
vn 0.000000 0.472348 0.881412
vn 0.000000 0.894427 0.447214
vn 0.000000 0.991144 0.132789

# Mesh
g Cube
usemtl Material
f 4/4/1 1/1/1 2/2/1
f 2/2/1 3/3/1 4/4/1
f 3/3/2 5/5/2 6/6/2
f 6/6/2 4/4/2 3/3/2
f 8/10/3 7/7/3 3/8/3
f 3/8/3 2/9/3 8/10/3
f 7/14/4 8/11/4 9/12/4
f 9/12/4 10/13/4 7/14/4
f 10/18/5 9/15/5 1/16/5
f 1/16/5 4/17/5 10/18/5
f 14/22/4 11/19/4 12/20/4
f 12/20/4 13/21/4 14/22/4
f 18/26/1 15/23/1 16/24/1
f 16/24/1 17/25/1 18/26/1
f 13/30/5 12/27/5 15/28/5
f 15/28/5 18/29/5 13/30/5
f 18/34/6 17/31/6 14/32/6
f 14/32/6 13/33/6 18/34/6
f 7/7/6 19/35/6 5/36/6
f 5/36/6 3/8/6 7/7/6
f 10/13/7 20/37/7 19/38/7
f 19/38/7 7/14/7 10/13/7
f 4/17/6 6/39/6 20/40/6
f 20/40/6 10/18/6 4/17/6
f 22/42/8 15/28/8 12/27/8
f 12/27/8 21/41/8 22/42/8
f 24/44/9 22/42/9 21/41/9
f 21/41/9 23/43/9 24/44/9
f 19/35/10 24/44/10 23/43/10
f 23/43/10 5/36/10 19/35/10
f 26/48/11 11/45/11 16/46/11
f 16/46/11 25/47/11 26/48/11
f 28/50/12 26/48/12 25/47/12
f 25/47/12 27/49/12 28/50/12
f 6/39/13 28/50/13 27/49/13
f 27/49/13 20/40/13 6/39/13
f 28/52/14 6/6/14 5/5/14
f 5/5/14 23/51/14 28/52/14
f 26/54/15 28/52/15 23/51/15
f 23/51/15 21/53/15 26/54/15
f 11/19/16 26/54/16 21/53/16
f 21/53/16 12/20/16 11/19/16
f 24/56/17 19/38/17 20/37/17
f 20/37/17 27/55/17 24/56/17
f 22/58/18 24/56/18 27/55/18
f 27/55/18 25/57/18 22/58/18
f 15/23/19 22/58/19 25/57/19
f 25/57/19 16/24/19 15/23/19
f 17/60/3 16/46/3 11/45/3
f 11/45/3 14/59/3 17/60/3
